<svg version="1.1" xmlns="http://www.w3.org/2000/svg" xmlns:xlink="http://www.w3.org/1999/xlink" width="138.83459" height="138.83459" viewBox="0,0,138.83459,138.83459"><g transform="translate(-170.5827,-110.5827)"><g data-paper-data="{&quot;isPaintingLayer&quot;:true}" fill-rule="nonzero" stroke-linecap="butt" stroke-linejoin="miter" stroke-miterlimit="10" stroke-dasharray="" stroke-dashoffset="0" style="mix-blend-mode: normal"><path d="M170.5827,180c0,-38.33811 31.07918,-69.4173 69.4173,-69.4173c38.33811,0 69.4173,31.07918 69.4173,69.4173c0,38.33811 -31.07918,69.4173 -69.4173,69.4173c-38.33811,0 -69.4173,-31.07918 -69.4173,-69.4173z" fill="#ffffff" stroke="none" stroke-width="0"/><path d="M224.02979,220.40651c0,-16.26856 0,-70.79375 0,-80.33438c0,-2.78452 1.22338,-4.19049 2.67555,-2.97851c5.41075,4.5158 38.76075,32.34959 48.60176,40.56285c1.72781,1.44203 1.71934,3.12309 -0.02194,4.57562c-9.87536,8.23779 -43.21991,36.05301 -48.60669,40.54653c-1.439,1.20038 -2.64868,0.52549 -2.64868,-2.37212z" fill="#000000" stroke="#000000" stroke-width="5"/></g></g></svg>